<svg version="1.1" xmlns="http://www.w3.org/2000/svg" xmlns:xlink="http://www.w3.org/1999/xlink" width="518.36453" height="275.12129" viewBox="0,0,518.36453,275.12129"><g transform="translate(-60.29972,-32.41683)"><g fill="#6689ff" stroke="none" stroke-width="0" stroke-miterlimit="10"><path d="M295.55497,180c0,-13.50062 10.94441,-24.44503 24.44503,-24.44503c13.50062,0 24.44503,10.94441 24.44503,24.44503c0,13.50062 -10.94441,24.44503 -24.44503,24.44503c-13.50062,0 -24.44503,-10.94441 -24.44503,-24.44503z"/><path d="M99.35377,106.92192c0,-13.50062 10.94441,-24.44503 24.44503,-24.44503c13.50062,0 24.44503,10.94441 24.44503,24.44503c0,13.50062 -10.94441,24.44503 -24.44503,24.44503c-13.50062,0 -24.44503,-10.94441 -24.44503,-24.44503z"/><path d="M479.72915,283.09309c0,-13.50062 10.94441,-24.44503 24.44503,-24.44503c13.50062,0 24.44503,10.94441 24.44503,24.44503c0,13.50062 -10.94441,24.44503 -24.44503,24.44503c-13.50062,0 -24.44503,-10.94441 -24.44503,-24.44503z"/><path d="M529.77419,56.86186c0,-13.50062 10.94441,-24.44503 24.44503,-24.44503c13.50062,0 24.44503,10.94441 24.44503,24.44503c0,13.50062 -10.94441,24.44503 -24.44503,24.44503c-13.50062,0 -24.44503,-10.94441 -24.44503,-24.44503z"/><path d="M60.29972,281.08108c0,-13.50062 10.94441,-24.44503 24.44503,-24.44503c13.50062,0 24.44503,10.94441 24.44503,24.44503c0,13.50062 -10.94441,24.44503 -24.44503,24.44503c-13.50062,0 -24.44503,-10.94441 -24.44503,-24.44503z"/></g></g></svg>